<svg fill="none" height="100%" width="100%" viewBox="0 0 1000 1000" xmlns:xlink="http://www.w3.org/1999/xlink" xmlns="http://www.w3.org/2000/svg"><defs><clipPath id="i0"><path d="M250.491,119.549C250.491,119.549,185.829,190.139,117.394,172.357C48.959,154.575,4.773,186.367,4.773,186.367C4.773,186.367,-16.242,179.901,-16.242,179.901C-16.242,179.901,-21.631,124.399,-21.631,124.399C-21.631,124.399,-25.403,268.273,-25.403,268.273C-25.403,268.273,254.263,269.89,254.263,269.89C254.263,269.89,250.491,119.549,250.491,119.549Z"><animate repeatCount="indefinite" begin="0s" keySplines="0 0 1 1; 0 0 1 1; 0 0 1 1; 0 0 1 1; 0 0 1 1" calcMode="spline" fill="freeze" dur="2.035s" keyTimes="0; 0.245902; 0.491803; 0.737705; 0.983607; 1" values="M250.491,119.549C250.491,119.549,185.829,190.139,117.394,172.357C48.959,154.575,4.773,186.367,4.773,186.367C4.773,186.367,-16.242,179.901,-16.242,179.901C-16.242,179.901,-21.631,124.399,-21.631,124.399C-21.631,124.399,-25.403,268.273,-25.403,268.273C-25.403,268.273,254.263,269.89,254.263,269.89C254.263,269.89,250.491,119.549,250.491,119.549Z; M203.994,81.929C203.994,81.929,139.333,152.519,70.898,134.737C2.463,116.955,-41.723,148.747,-41.723,148.747C-41.723,148.747,-62.738,142.281,-62.738,142.281C-62.738,142.281,-68.127,86.779,-68.127,86.779C-68.127,86.779,-71.899,230.653,-71.899,230.653C-71.899,230.653,207.766,232.27,207.766,232.27C207.766,232.27,203.994,81.929,203.994,81.929Z; M255.719,61.455C255.719,61.455,198.75,158.88,132.859,105.104C78.08,60.397,-5.624,103.489,-5.624,103.489C-5.624,103.489,-9.033,136.998,-11.014,121.807C-12.995,106.616,-16.403,66.305,-16.403,66.305C-16.403,66.305,-20.175,210.179,-20.175,210.179C-20.175,210.179,259.491,211.796,259.491,211.796C259.491,211.796,255.719,61.455,255.719,61.455Z; M259.1,61.455C259.1,61.455,174.236,110.274,108.345,56.498C53.566,11.791,-7.315,57.42,-7.315,57.42C-7.315,57.42,-5.652,136.998,-7.633,121.807C-9.614,106.616,-13.022,66.305,-13.022,66.305C-13.022,66.305,-16.794,210.179,-16.794,210.179C-16.794,210.179,262.872,211.796,262.872,211.796C262.872,211.796,259.1,61.455,259.1,61.455Z; M340.418,22.978C340.418,22.978,230.541,84.291,145.229,16.752C74.304,-39.397,-4.521,17.909,-4.521,17.909C-4.521,17.909,-2.368,117.855,-4.933,98.776C-7.498,79.697,-11.91,29.069,-11.91,29.069C-11.91,29.069,-16.794,209.766,-16.794,209.766C-16.794,209.766,345.302,211.796,345.302,211.796C345.302,211.796,340.418,22.978,340.418,22.978Z; M340.418,22.978C340.418,22.978,230.541,84.291,145.229,16.752C74.304,-39.397,-4.521,17.909,-4.521,17.909C-4.521,17.909,-2.368,117.855,-4.933,98.776C-7.498,79.697,-11.91,29.069,-11.91,29.069C-11.91,29.069,-16.794,209.766,-16.794,209.766C-16.794,209.766,345.302,211.796,345.302,211.796C345.302,211.796,340.418,22.978,340.418,22.978Z" attributeName="d" /></path></clipPath></defs><g id="i1"><g transform="translate(516,468)"><g transform="scale(3.712,3.712)"><animateTransform repeatCount="indefinite" type="scale" attributeName="transform" dur="2.035s" begin="0s" calcMode="spline" values="3.712 3.712; 4.732 4.732; 3.712 3.712; 4.732 4.732; 3.712 3.712; 3.712 3.712" keyTimes="0; 0.245902; 0.491803; 0.737705; 0.983607; 1" keySplines="0 0 1 1; 0 0 1 1; 0 0 1 1; 0 0 1 1; 0 0 1 1" fill="freeze" /><g transform="translate(-105,-105)"><g clip-path="url(#i0)" id="i2"><g id="i3" transform="matrix(1,0,0,1,104.561,124.514)"><path fill="#e42320" d="M-0.001,-56.54C-17.049,-73.485,-29.958,-83.791,-51.685,-81.432C-81.234,-78.228,-104.387,-44.767,-99.36,-15.548C-91.299,31.298,-49.801,58.952,-0.001,83.79C49.799,58.956,87.114,30.823,95.172,-16.023C100.201,-45.242,81.233,-78.228,51.684,-81.432C49.614,-81.657,47.615,-81.767,45.68,-81.767C27.303,-81.767,14.612,-71.871,-0.001,-56.54Z" /></g></g></g></g></g></g><g id="i4"><g transform="translate(516,468)"><g transform="scale(3.712,3.712)"><animateTransform repeatCount="indefinite" type="scale" attributeName="transform" dur="2.035s" begin="0s" calcMode="spline" values="3.712 3.712; 4.732 4.732; 3.712 3.712; 4.732 4.732; 3.712 3.712; 3.712 3.712" keyTimes="0; 0.245902; 0.491803; 0.737705; 0.983607; 1" keySplines="0 0 1 1; 0 0 1 1; 0 0 1 1; 0 0 1 1; 0 0 1 1" fill="freeze" /><g transform="translate(-105,-105)"><g id="i3" transform="matrix(1,0,0,1,104.561,124.514)"><path stroke-width="7" stroke="#e42320" d="M-0.001,-56.54C-17.049,-73.485,-29.958,-83.791,-51.685,-81.432C-81.234,-78.228,-104.387,-44.767,-99.36,-15.548C-91.299,31.298,-49.801,58.952,-0.001,83.79C49.799,58.956,87.114,30.823,95.172,-16.023C100.201,-45.242,81.233,-78.228,51.684,-81.432C49.614,-81.657,47.615,-81.767,45.68,-81.767C27.303,-81.767,14.612,-71.871,-0.001,-56.54Z" /></g></g></g></g></g></svg>